<svg aria-hidden="true" style="position: absolute; width: 0; height: 0; overflow: hidden;" version="1.1"
     xmlns="http://www.w3.org/2000/svg" xmlns:xlink="http://www.w3.org/1999/xlink">
    <defs>
        <symbol id="star" viewBox="0 0 15 16">
            <path d="M7.5 15.5C7.5 11.3579 10.8579 8 15 8C10.8579 8 7.5 4.64214 7.5 0.5C7.5 4.64214 4.14214 8 9.53674e-07 8C4.14214 8 7.5 11.3579 7.5 15.5Z"/>
        </symbol>
        <symbol id="site" viewBox="0 0 31 32">
            <path fill-rule="evenodd" clip-rule="evenodd"
                  d="M15.1991 0.963867C6.80488 0.963867 0 7.90075 0 16.4578C0 25.0149 6.80488 31.9518 15.1991 31.9518C23.5934 31.9518 30.3983 25.0149 30.3983 16.4578C30.3983 7.90075 23.5934 0.963867 15.1991 0.963867ZM17.335 8.44271C17.3046 8.13877 17.2742 7.83483 17.272 7.52881H17.2719H13.7089C13.6646 7.70097 13.6549 7.87698 13.6451 8.05281L13.6451 8.05293C13.6406 8.13287 13.6362 8.21277 13.6285 8.29225C13.5829 8.76323 13.5457 9.23498 13.5086 9.70672C13.486 9.99354 13.4634 10.2804 13.4389 10.567C13.3993 11.0306 13.3574 11.4939 13.3155 11.9573L13.3154 11.9579L13.3154 11.958L13.3149 11.963C13.2885 12.2555 13.262 12.548 13.2361 12.8406C13.2319 12.8883 13.2303 12.9363 13.2288 12.9843C13.2271 13.036 13.2254 13.0877 13.2204 13.1391C13.2047 13.3002 13.1731 13.3246 13.0134 13.2907C12.8453 13.2551 12.678 13.2161 12.5107 13.177L12.5105 13.1769L12.5105 13.1769L12.3575 13.1413L7.7069 12.0632L7.66463 12.0535C7.43864 12.003 7.43225 12.004 7.35804 12.2286C7.18045 12.766 7.00358 13.3036 6.82671 13.8412L6.82651 13.8419L6.82629 13.8425C6.7003 14.2255 6.57431 14.6085 6.44807 14.9914C6.44305 15.0066 6.43829 15.022 6.43353 15.0373L6.43352 15.0373C6.40881 15.1171 6.38401 15.1972 6.3223 15.2604V15.3458C6.34396 15.3528 6.36581 15.3594 6.38766 15.3659L6.38768 15.3659C6.43513 15.3802 6.48258 15.3944 6.52806 15.4132C7.13486 15.665 7.74124 15.9177 8.34765 16.1703L8.90814 16.4038C9.02831 16.4538 9.14872 16.5033 9.26913 16.5528C9.56295 16.6735 9.85675 16.7942 10.1468 16.9229C10.3052 16.9932 10.412 16.9733 10.5255 16.8449C10.5916 16.7702 10.6687 16.7049 10.7459 16.6396C10.7898 16.6024 10.8336 16.5653 10.8756 16.5263C11.3768 16.0608 11.9194 15.6462 12.4886 15.2653C13.6912 14.4606 14.9762 13.8103 16.3342 13.2993C16.7331 13.1493 17.1349 13.0066 17.5367 12.8642C17.6423 12.8267 17.7137 12.78 17.7011 12.6519C17.6766 12.4036 17.6556 12.1549 17.6346 11.9063L17.6346 11.9061L17.6346 11.9059C17.6257 11.8004 17.6168 11.6949 17.6076 11.5894L17.5565 11.0027L17.4929 10.2717C17.4817 10.1431 17.4701 10.0145 17.4584 9.88597C17.4308 9.58253 17.4033 9.27908 17.3826 8.97517C17.3705 8.7974 17.3527 8.62005 17.335 8.44271ZM23.5803 12.2044C23.5412 12.0862 23.4526 12.0331 23.3147 12.0451L23.3148 12.045C22.8398 12.0973 22.3691 12.1762 21.9002 12.2665C19.7915 12.6721 17.811 13.4148 15.9498 14.4649C15.0064 14.9973 14.1156 15.6059 13.2764 16.2884C12.4152 16.989 11.6183 17.7536 10.8851 18.5813C10.07 19.5016 9.35566 20.4942 8.73347 21.5505C8.69276 21.6195 8.65342 21.6894 8.61409 21.7593L8.61406 21.7593C8.56927 21.8389 8.52447 21.9185 8.47764 21.9968C8.41725 22.0979 8.43913 22.17 8.54031 22.2268C8.57188 22.2446 8.60203 22.2648 8.63218 22.2851L8.6322 22.2851L8.63222 22.2851C8.64995 22.297 8.66767 22.309 8.68568 22.3204L9.17236 22.6287L9.17276 22.629C9.67368 22.9464 10.1746 23.2639 10.676 23.5806C11.1694 23.8922 11.6635 24.2026 12.158 24.5126C12.3474 24.6314 12.3504 24.6316 12.4643 24.4303C12.5259 24.3215 12.5858 24.2117 12.6458 24.102L12.6458 24.1019C12.7297 23.9483 12.8136 23.7948 12.902 23.6438C13.7666 22.1654 14.8271 20.8405 16.0967 19.6754C16.6643 19.1546 17.259 18.6694 17.889 18.225C18.9523 17.475 20.088 16.851 21.2961 16.3569C22.2877 15.9512 23.3091 15.6366 24.3609 15.4188C24.6194 15.3653 24.6231 15.355 24.5422 15.1078L24.5356 15.0874L23.5803 12.2044ZM19.3708 24.5972C19.3132 24.6002 19.2768 24.5636 19.2432 24.5266C19.1324 24.4045 19.0224 24.2817 18.914 24.1576C18.7026 23.9157 18.4915 23.6736 18.2804 23.4315L18.2801 23.4311C17.7236 22.7929 17.1671 22.1547 16.6066 21.5199C16.4939 21.3922 16.483 21.287 16.5562 21.1375C16.8095 20.6203 17.1397 20.1535 17.5083 19.713C17.9232 19.2171 18.3845 18.7652 18.9047 18.3745C19.0196 18.2882 19.138 18.2057 19.2591 18.128C19.4049 18.0343 19.423 18.0376 19.514 18.1827C19.7095 18.4941 19.9018 18.8075 20.0942 19.1209L20.0942 19.1211L20.1119 19.1498C20.7739 20.2285 21.4357 21.3075 22.0968 22.3867C22.2203 22.5883 22.2188 22.5894 22.0202 22.7312L22.0165 22.7338C21.4158 23.1626 20.8154 23.5916 20.215 24.0206L19.5565 24.4912C19.5449 24.4994 19.5335 24.5081 19.5221 24.5167C19.4764 24.5515 19.4306 24.5863 19.3707 24.5972L19.3708 24.5972Z"/>
        </symbol>
        <symbol id="mail" viewBox="0 0 31 32">
            <path fill-rule="evenodd" clip-rule="evenodd"
                  d="M15.1991 0.976074C6.80488 0.976074 0 7.91296 0 16.47C0 25.0271 6.80488 31.964 15.1991 31.964C23.5934 31.964 30.3983 25.0271 30.3983 16.47C30.3983 7.91296 23.5934 0.976074 15.1991 0.976074ZM9.27339 10.167H21.638C22.488 10.167 23.1835 10.9055 23.1835 11.8082V21.6554C23.1835 22.5581 22.488 23.2966 21.638 23.2966H9.27339C8.42332 23.2966 7.72781 22.5581 7.72781 21.6554L7.73554 11.8082C7.73554 10.9055 8.42332 10.167 9.27339 10.167ZM15.4557 17.5524L21.638 13.4494V11.8082L15.4557 15.9112L9.27339 11.8082V13.4494L15.4557 17.5524Z"/>
        </symbol>
        <symbol id="instagram" viewBox="0 0 31 32">
            <path fill-rule="evenodd" clip-rule="evenodd"
                  d="M15.1991 0.987793C6.80488 0.987793 0 7.92468 0 16.4818C0 25.0388 6.80488 31.9757 15.1991 31.9757C23.5934 31.9757 30.3983 25.0388 30.3983 16.4818C30.3983 7.92468 23.5934 0.987793 15.1991 0.987793ZM17.9414 8.88402C17.3776 8.87026 16.8137 8.86449 16.2498 8.86669L14.6611 8.8659C14.0974 8.86452 13.5338 8.87108 12.9703 8.8856L12.8204 8.88954L12.2702 8.91317C11.4472 8.95256 10.887 9.0849 10.394 9.27947C9.87851 9.47765 9.41172 9.78816 9.0262 10.1893C8.63207 10.582 8.32715 11.0579 8.1329 11.5836C7.94204 12.0862 7.81221 12.6573 7.77358 13.4963C7.7643 13.7058 7.75658 13.8807 7.75039 14.0572L7.74499 14.21C7.7315 14.7844 7.72583 15.359 7.72799 15.9336V17.5532C7.72662 18.1281 7.73306 18.7029 7.7473 19.2776L7.75117 19.4304C7.75802 19.6174 7.76574 19.8044 7.77435 19.9913C7.81299 20.8295 7.94281 21.4014 8.13368 21.9032C8.32781 22.429 8.63213 22.9054 9.02543 23.299C9.41121 23.6999 9.87829 24.0099 10.394 24.2073C10.887 24.4011 11.448 24.535 12.2702 24.5744C12.4535 24.5834 12.6369 24.5913 12.8204 24.598L12.9703 24.6028C13.534 24.6168 14.0979 24.6228 14.6618 24.6209H15.6734L16.2498 24.6201C16.8137 24.622 17.3776 24.616 17.9414 24.602L18.0913 24.5973C18.259 24.5912 18.4246 24.5836 18.6225 24.5745L18.6415 24.5736C19.4637 24.5342 20.0247 24.4019 20.5169 24.2073C21.0326 24.0094 21.4998 23.6995 21.8862 23.299C22.2796 22.9056 22.5838 22.4292 22.7772 21.9032C22.9673 21.4014 23.0987 20.8295 23.1373 19.9913L23.1382 19.9717C23.1471 19.7701 23.1545 19.6014 23.1605 19.4304L23.1651 19.2776C23.1789 18.7029 23.1848 18.1281 23.1829 17.5532V16.5213L23.1821 15.9336C23.184 15.359 23.1781 14.7844 23.1644 14.21L23.1597 14.0572C23.1535 13.8807 23.1458 13.7058 23.1365 13.4963C23.0979 12.6581 22.9681 12.0854 22.7772 11.5836C22.5831 11.0582 22.2791 10.5821 21.8862 10.1885C21.4566 9.75055 21.0269 9.47956 20.5169 9.27947C20.0247 9.0849 19.4637 8.95256 18.6415 8.91317L18.6225 8.9123C18.4246 8.90323 18.259 8.89564 18.0913 8.88954L17.9414 8.88402ZM13.9602 13.0891C14.4352 12.8945 14.9435 12.7981 15.4554 12.8054C16.4802 12.8054 17.4629 13.2196 18.1875 13.9583C18.9121 14.6969 19.3192 15.6988 19.3192 16.7434C19.3192 17.788 18.9121 18.7899 18.1875 19.5285C17.4629 20.2672 16.4802 20.6821 15.4554 20.6821C14.9435 20.6895 14.4352 20.5931 13.9602 20.3985C13.4851 20.2039 13.0527 19.915 12.6881 19.5485C12.3235 19.1821 12.034 18.7454 11.8364 18.2639C11.6388 17.7824 11.5371 17.2657 11.5371 16.7438C11.5371 16.2219 11.6388 15.7051 11.8364 15.2236C12.034 14.7422 12.3235 14.3055 12.6881 13.9391C13.0527 13.5726 13.4851 13.2837 13.9602 13.0891ZM16.3555 14.5481C16.0694 14.432 15.7634 14.3752 15.4554 14.3809L15.4562 14.3801C14.8414 14.3801 14.2517 14.6291 13.817 15.0723C13.3822 15.5155 13.138 16.1166 13.138 16.7434C13.138 17.3702 13.3822 17.9713 13.817 18.4145C14.2517 18.8577 14.8414 19.1066 15.4562 19.1066C15.7642 19.1123 16.0701 19.0554 16.3563 18.9392C16.6424 18.823 16.9029 18.6498 17.1226 18.4298C17.3424 18.2097 17.5169 17.9473 17.636 17.6578C17.7551 17.3682 17.8164 17.0574 17.8164 16.7434C17.8163 16.4294 17.7549 16.1186 17.6357 15.8291C17.5165 15.5396 17.3419 15.2772 17.1221 15.0573C16.9023 14.8373 16.6417 14.6642 16.3555 14.5481ZM18.8545 11.9255C19.0273 11.7421 19.2631 11.634 19.5124 11.6238V11.6222C19.7685 11.6222 20.0142 11.726 20.1954 11.9106C20.3765 12.0953 20.4783 12.3458 20.4783 12.6069C20.4783 12.8681 20.3765 13.1185 20.1954 13.3032C20.0142 13.4879 19.7685 13.5916 19.5124 13.5916C19.2631 13.5814 19.0273 13.4733 18.8545 13.2899C18.6816 13.1065 18.5851 12.8621 18.5851 12.6077C18.5851 12.3534 18.6816 12.1089 18.8545 11.9255Z"/>
        </symbol>
        <symbol id="call" viewBox="0 0 31 31">
            <path fill-rule="evenodd" clip-rule="evenodd"
                  d="M15.1991 0C6.80488 0 0 6.93688 0 15.494C0 24.051 6.80488 30.9879 15.1991 30.9879C23.5934 30.9879 30.3983 24.051 30.3983 15.494C30.3983 6.93688 23.5934 0 15.1991 0ZM19.3022 18.1845C20.2553 18.4996 21.2771 18.6747 22.3332 18.6747C22.7969 18.6747 23.1833 19.0686 23.1833 19.5412V22.561C23.1833 23.0425 22.9428 23.5939 22.3332 23.5939C14.3649 23.5939 7.72754 16.8365 7.72754 8.70493C7.72754 8.04845 8.28566 7.83838 8.74933 7.83838H11.7203C12.1839 7.83838 12.5703 8.23227 12.5703 8.70493C12.5703 9.78156 12.7335 10.8232 13.0512 11.7948C13.1456 12.1011 13.0769 12.4425 12.8451 12.6876L11.1707 14.1406C12.3814 16.7052 14.6569 18.9373 17.0868 20.1189L18.4349 18.3946C18.6668 18.1582 19.0016 18.0795 19.3022 18.1845Z"/>
        </symbol>
    </defs>
</svg>
