<svg width="31" height="31" viewBox="0 0 31 31" fill="none" xmlns="http://www.w3.org/2000/svg">
<path fill-rule="evenodd" clip-rule="evenodd" d="M15.1991 0C6.80488 0 0 6.93688 0 15.494C0 24.051 6.80488 30.9879 15.1991 30.9879C23.5934 30.9879 30.3983 24.051 30.3983 15.494C30.3983 6.93688 23.5934 0 15.1991 0ZM19.3022 18.1845C20.2553 18.4996 21.2771 18.6747 22.3332 18.6747C22.7969 18.6747 23.1833 19.0686 23.1833 19.5412V22.561C23.1833 23.0425 22.9428 23.5939 22.3332 23.5939C14.3649 23.5939 7.72754 16.8365 7.72754 8.70493C7.72754 8.04845 8.28566 7.83838 8.74933 7.83838H11.7203C12.1839 7.83838 12.5703 8.23227 12.5703 8.70493C12.5703 9.78156 12.7335 10.8232 13.0512 11.7948C13.1456 12.1011 13.0769 12.4425 12.8451 12.6876L11.1707 14.1406C12.3814 16.7052 14.6569 18.9373 17.0868 20.1189L18.4349 18.3946C18.6668 18.1582 19.0016 18.0795 19.3022 18.1845Z" fill="#336633"/>
</svg>
