<svg width="31" height="32" viewBox="0 0 31 32" fill="none" xmlns="http://www.w3.org/2000/svg">
<path fill-rule="evenodd" clip-rule="evenodd" d="M15.1991 0.987793C6.80488 0.987793 0 7.92468 0 16.4818C0 25.0388 6.80488 31.9757 15.1991 31.9757C23.5934 31.9757 30.3983 25.0388 30.3983 16.4818C30.3983 7.92468 23.5934 0.987793 15.1991 0.987793ZM17.9414 8.88402C17.3776 8.87026 16.8137 8.86449 16.2498 8.86669L14.6611 8.8659C14.0974 8.86452 13.5338 8.87108 12.9703 8.8856L12.8204 8.88954L12.2702 8.91317C11.4472 8.95256 10.887 9.0849 10.394 9.27947C9.87851 9.47765 9.41172 9.78816 9.0262 10.1893C8.63207 10.582 8.32715 11.0579 8.1329 11.5836C7.94204 12.0862 7.81221 12.6573 7.77358 13.4963C7.7643 13.7058 7.75658 13.8807 7.75039 14.0572L7.74499 14.21C7.7315 14.7844 7.72583 15.359 7.72799 15.9336V17.5532C7.72662 18.1281 7.73306 18.7029 7.7473 19.2776L7.75117 19.4304C7.75802 19.6174 7.76574 19.8044 7.77435 19.9913C7.81299 20.8295 7.94281 21.4014 8.13368 21.9032C8.32781 22.429 8.63213 22.9054 9.02543 23.299C9.41121 23.6999 9.87829 24.0099 10.394 24.2073C10.887 24.4011 11.448 24.535 12.2702 24.5744C12.4535 24.5834 12.6369 24.5913 12.8204 24.598L12.9703 24.6028C13.534 24.6168 14.0979 24.6228 14.6618 24.6209H15.6734L16.2498 24.6201C16.8137 24.622 17.3776 24.616 17.9414 24.602L18.0913 24.5973C18.259 24.5912 18.4246 24.5836 18.6225 24.5745L18.6415 24.5736C19.4637 24.5342 20.0247 24.4019 20.5169 24.2073C21.0326 24.0094 21.4998 23.6995 21.8862 23.299C22.2796 22.9056 22.5838 22.4292 22.7772 21.9032C22.9673 21.4014 23.0987 20.8295 23.1373 19.9913L23.1382 19.9717C23.1471 19.7701 23.1545 19.6014 23.1605 19.4304L23.1651 19.2776C23.1789 18.7029 23.1848 18.1281 23.1829 17.5532V16.5213L23.1821 15.9336C23.184 15.359 23.1781 14.7844 23.1644 14.21L23.1597 14.0572C23.1535 13.8807 23.1458 13.7058 23.1365 13.4963C23.0979 12.6581 22.9681 12.0854 22.7772 11.5836C22.5831 11.0582 22.2791 10.5821 21.8862 10.1885C21.4566 9.75055 21.0269 9.47956 20.5169 9.27947C20.0247 9.0849 19.4637 8.95256 18.6415 8.91317L18.6225 8.9123C18.4246 8.90323 18.259 8.89564 18.0913 8.88954L17.9414 8.88402ZM13.9602 13.0891C14.4352 12.8945 14.9435 12.7981 15.4554 12.8054C16.4802 12.8054 17.4629 13.2196 18.1875 13.9583C18.9121 14.6969 19.3192 15.6988 19.3192 16.7434C19.3192 17.788 18.9121 18.7899 18.1875 19.5285C17.4629 20.2672 16.4802 20.6821 15.4554 20.6821C14.9435 20.6895 14.4352 20.5931 13.9602 20.3985C13.4851 20.2039 13.0527 19.915 12.6881 19.5485C12.3235 19.1821 12.034 18.7454 11.8364 18.2639C11.6388 17.7824 11.5371 17.2657 11.5371 16.7438C11.5371 16.2219 11.6388 15.7051 11.8364 15.2236C12.034 14.7422 12.3235 14.3055 12.6881 13.9391C13.0527 13.5726 13.4851 13.2837 13.9602 13.0891ZM16.3555 14.5481C16.0694 14.432 15.7634 14.3752 15.4554 14.3809L15.4562 14.3801C14.8414 14.3801 14.2517 14.6291 13.817 15.0723C13.3822 15.5155 13.138 16.1166 13.138 16.7434C13.138 17.3702 13.3822 17.9713 13.817 18.4145C14.2517 18.8577 14.8414 19.1066 15.4562 19.1066C15.7642 19.1123 16.0701 19.0554 16.3563 18.9392C16.6424 18.823 16.9029 18.6498 17.1226 18.4298C17.3424 18.2097 17.5169 17.9473 17.636 17.6578C17.7551 17.3682 17.8164 17.0574 17.8164 16.7434C17.8163 16.4294 17.7549 16.1186 17.6357 15.8291C17.5165 15.5396 17.3419 15.2772 17.1221 15.0573C16.9023 14.8373 16.6417 14.6642 16.3555 14.5481ZM18.8545 11.9255C19.0273 11.7421 19.2631 11.634 19.5124 11.6238V11.6222C19.7685 11.6222 20.0142 11.726 20.1954 11.9106C20.3765 12.0953 20.4783 12.3458 20.4783 12.6069C20.4783 12.8681 20.3765 13.1185 20.1954 13.3032C20.0142 13.4879 19.7685 13.5916 19.5124 13.5916C19.2631 13.5814 19.0273 13.4733 18.8545 13.2899C18.6816 13.1065 18.5851 12.8621 18.5851 12.6077C18.5851 12.3534 18.6816 12.1089 18.8545 11.9255Z" fill="#336633"/>
</svg>
