<svg width="31" height="32" viewBox="0 0 31 32" fill="none" xmlns="http://www.w3.org/2000/svg">
<path fill-rule="evenodd" clip-rule="evenodd" d="M15.1991 0.976074C6.80488 0.976074 0 7.91296 0 16.47C0 25.0271 6.80488 31.964 15.1991 31.964C23.5934 31.964 30.3983 25.0271 30.3983 16.47C30.3983 7.91296 23.5934 0.976074 15.1991 0.976074ZM9.27339 10.167H21.638C22.488 10.167 23.1835 10.9055 23.1835 11.8082V21.6554C23.1835 22.5581 22.488 23.2966 21.638 23.2966H9.27339C8.42332 23.2966 7.72781 22.5581 7.72781 21.6554L7.73554 11.8082C7.73554 10.9055 8.42332 10.167 9.27339 10.167ZM15.4557 17.5524L21.638 13.4494V11.8082L15.4557 15.9112L9.27339 11.8082V13.4494L15.4557 17.5524Z" fill="#336633"/>
</svg>
