<svg width="31" height="32" viewBox="0 0 31 32" fill="none" xmlns="http://www.w3.org/2000/svg">
<path fill-rule="evenodd" clip-rule="evenodd" d="M15.1991 0.963867C6.80488 0.963867 0 7.90075 0 16.4578C0 25.0149 6.80488 31.9518 15.1991 31.9518C23.5934 31.9518 30.3983 25.0149 30.3983 16.4578C30.3983 7.90075 23.5934 0.963867 15.1991 0.963867ZM17.335 8.44271C17.3046 8.13877 17.2742 7.83483 17.272 7.52881H17.2719H13.7089C13.6646 7.70097 13.6549 7.87698 13.6451 8.05281L13.6451 8.05293C13.6406 8.13287 13.6362 8.21277 13.6285 8.29225C13.5829 8.76323 13.5457 9.23498 13.5086 9.70672C13.486 9.99354 13.4634 10.2804 13.4389 10.567C13.3993 11.0306 13.3574 11.4939 13.3155 11.9573L13.3154 11.9579L13.3154 11.958L13.3149 11.963C13.2885 12.2555 13.262 12.548 13.2361 12.8406C13.2319 12.8883 13.2303 12.9363 13.2288 12.9843C13.2271 13.036 13.2254 13.0877 13.2204 13.1391C13.2047 13.3002 13.1731 13.3246 13.0134 13.2907C12.8453 13.2551 12.678 13.2161 12.5107 13.177L12.5105 13.1769L12.5105 13.1769L12.3575 13.1413L7.7069 12.0632L7.66463 12.0535C7.43864 12.003 7.43225 12.004 7.35804 12.2286C7.18045 12.766 7.00358 13.3036 6.82671 13.8412L6.82651 13.8419L6.82629 13.8425C6.7003 14.2255 6.57431 14.6085 6.44807 14.9914C6.44305 15.0066 6.43829 15.022 6.43353 15.0373L6.43352 15.0373C6.40881 15.1171 6.38401 15.1972 6.3223 15.2604V15.3458C6.34396 15.3528 6.36581 15.3594 6.38766 15.3659L6.38768 15.3659C6.43513 15.3802 6.48258 15.3944 6.52806 15.4132C7.13486 15.665 7.74124 15.9177 8.34765 16.1703L8.90814 16.4038C9.02831 16.4538 9.14872 16.5033 9.26913 16.5528C9.56295 16.6735 9.85675 16.7942 10.1468 16.9229C10.3052 16.9932 10.412 16.9733 10.5255 16.8449C10.5916 16.7702 10.6687 16.7049 10.7459 16.6396C10.7898 16.6024 10.8336 16.5653 10.8756 16.5263C11.3768 16.0608 11.9194 15.6462 12.4886 15.2653C13.6912 14.4606 14.9762 13.8103 16.3342 13.2993C16.7331 13.1493 17.1349 13.0066 17.5367 12.8642C17.6423 12.8267 17.7137 12.78 17.7011 12.6519C17.6766 12.4036 17.6556 12.1549 17.6346 11.9063L17.6346 11.9061L17.6346 11.9059C17.6257 11.8004 17.6168 11.6949 17.6076 11.5894L17.5565 11.0027L17.4929 10.2717C17.4817 10.1431 17.4701 10.0145 17.4584 9.88597C17.4308 9.58253 17.4033 9.27908 17.3826 8.97517C17.3705 8.7974 17.3527 8.62005 17.335 8.44271ZM23.5803 12.2044C23.5412 12.0862 23.4526 12.0331 23.3147 12.0451L23.3148 12.045C22.8398 12.0973 22.3691 12.1762 21.9002 12.2665C19.7915 12.6721 17.811 13.4148 15.9498 14.4649C15.0064 14.9973 14.1156 15.6059 13.2764 16.2884C12.4152 16.989 11.6183 17.7536 10.8851 18.5813C10.07 19.5016 9.35566 20.4942 8.73347 21.5505C8.69276 21.6195 8.65342 21.6894 8.61409 21.7593L8.61406 21.7593C8.56927 21.8389 8.52447 21.9185 8.47764 21.9968C8.41725 22.0979 8.43913 22.17 8.54031 22.2268C8.57188 22.2446 8.60203 22.2648 8.63218 22.2851L8.6322 22.2851L8.63222 22.2851C8.64995 22.297 8.66767 22.309 8.68568 22.3204L9.17236 22.6287L9.17276 22.629C9.67368 22.9464 10.1746 23.2639 10.676 23.5806C11.1694 23.8922 11.6635 24.2026 12.158 24.5126C12.3474 24.6314 12.3504 24.6316 12.4643 24.4303C12.5259 24.3215 12.5858 24.2117 12.6458 24.102L12.6458 24.1019C12.7297 23.9483 12.8136 23.7948 12.902 23.6438C13.7666 22.1654 14.8271 20.8405 16.0967 19.6754C16.6643 19.1546 17.259 18.6694 17.889 18.225C18.9523 17.475 20.088 16.851 21.2961 16.3569C22.2877 15.9512 23.3091 15.6366 24.3609 15.4188C24.6194 15.3653 24.6231 15.355 24.5422 15.1078L24.5356 15.0874L23.5803 12.2044ZM19.3708 24.5972C19.3132 24.6002 19.2768 24.5636 19.2432 24.5266C19.1324 24.4045 19.0224 24.2817 18.914 24.1576C18.7026 23.9157 18.4915 23.6736 18.2804 23.4315L18.2801 23.4311C17.7236 22.7929 17.1671 22.1547 16.6066 21.5199C16.4939 21.3922 16.483 21.287 16.5562 21.1375C16.8095 20.6203 17.1397 20.1535 17.5083 19.713C17.9232 19.2171 18.3845 18.7652 18.9047 18.3745C19.0196 18.2882 19.138 18.2057 19.2591 18.128C19.4049 18.0343 19.423 18.0376 19.514 18.1827C19.7095 18.4941 19.9018 18.8075 20.0942 19.1209L20.0942 19.1211L20.1119 19.1498C20.7739 20.2285 21.4357 21.3075 22.0968 22.3867C22.2203 22.5883 22.2188 22.5894 22.0202 22.7312L22.0165 22.7338C21.4158 23.1626 20.8154 23.5916 20.215 24.0206L19.5565 24.4912C19.5449 24.4994 19.5335 24.5081 19.5221 24.5167C19.4764 24.5515 19.4306 24.5863 19.3707 24.5972L19.3708 24.5972Z" fill="#336633"/>
</svg>
