<svg width="31" height="31" viewBox="0 0 31 31" fill="none" xmlns="http://www.w3.org/2000/svg">
<path fill-rule="evenodd" clip-rule="evenodd" d="M15.1991 0C6.80488 0 0 6.93688 0 15.494C0 24.051 6.80488 30.9879 15.1991 30.9879C23.5934 30.9879 30.3983 24.051 30.3983 15.494C30.3983 6.93688 23.5934 0 15.1991 0ZM15.0106 18.1849H12.3595H12.3578V19.9339H16.8475V19.009C16.8475 18.2191 16.8465 17.4293 16.8455 16.6394V16.6386C16.8432 14.7207 16.8408 12.8027 16.8523 10.8847C16.8621 9.30476 18.0276 7.99785 19.5458 7.80766C21.0917 7.61586 22.5107 8.56353 22.948 10.0866C22.9974 10.2594 23.0367 10.4353 23.075 10.6068L23.075 10.607C23.0922 10.6839 23.1092 10.7599 23.1268 10.8344H24.8466C24.8338 10.7133 24.825 10.5971 24.8165 10.4848V10.4847C24.7991 10.2548 24.783 10.0411 24.736 9.83467C24.1736 7.35415 21.9142 5.76115 19.3573 6.02936C16.9905 6.27644 15.1131 8.3197 15.0675 10.7693C15.0415 12.2139 15.0459 13.6584 15.0502 15.103L15.0502 15.1035C15.0524 15.8256 15.0545 16.5477 15.0529 17.2697C15.0529 17.4621 15.0413 17.6544 15.0287 17.8623C15.0225 17.9654 15.016 18.0723 15.0106 18.1849ZM7 10.9156C8.76367 12.8451 11.8976 12.8711 13.7735 11.005L13.7751 11.0034C13.5411 10.7459 13.318 10.4993 13.0978 10.256L13.0962 10.2542L13.096 10.2539L13.096 10.2539L13.0943 10.2521C12.9349 10.0758 12.777 9.90136 12.6177 9.72574C11.1109 10.8945 9.63982 10.7872 8.22238 9.76638L7.98837 9.98659L7.98772 9.98721C7.64012 10.3143 7.31952 10.6161 7 10.9156ZM13.2142 23.9196V25.5858C10.75 25.8426 8.2613 23.3735 8.44336 20.8409H10.0932C10.3419 22.6079 11.353 23.6742 13.2142 23.9196Z" fill="#336633"/>
</svg>
